# xmcd
#
# Track frame offsets:
#	150
#	20826
#	43534
#	62538
#	84262
#	94898
#	114250
#	133763
#	155269
#	180461
#	207060
#	226860
#	240707
#	264196
#	285428
#	317563
#
# Disc length: 4800 seconds
#
# Revision: 0
# Processed by: cddbd v1.5.1PL0 Copyright (c) Steve Scherf et al.
# Submitted via: dBpowerAMP V4.0
#
DISCID=c412be10
DTITLE=Angry Johnny And The Killbillies - Puttin The Voodoo On Monroe
DYEAR=1900
DGENRE=Country
TTITLE0=When I Think Of You
TTITLE1=Jerry Lynn
TTITLE2=Only Thing I Want To Do
TTITLE3=Let´s Get It Over With
TTITLE4=Walpole Prison Blues
TTITLE5=Lazuri
TTITLE6=One Bullet Blues
TTITLE7=Lucky Day
TTITLE8=I Choose The Gun
TTITLE9=Baker´s Farm
TTITLE10=Only Thing He Said
TTITLE11=I Think I See The Light
TTITLE12=Body Doing Time
TTITLE13=Waltzing On Air
TTITLE14=Trains Don´t Run
TTITLE15=Sold Me Down The River
EXTD=
EXTT0=
EXTT1=
EXTT2=
EXTT3=
EXTT4=
EXTT5=
EXTT6=
EXTT7=
EXTT8=
EXTT9=
EXTT10=
EXTT11=
EXTT12=
EXTT13=
EXTT14=
EXTT15=
PLAYORDER=
